# Blender v2.83.10 OBJ File: 'arrow.blend'
# www.blender.org
mtllib ArrowBanner.mtl
v -0.025000 -0.500000 0.600000
v -0.025000 -0.650000 -0.400000
v -0.025000 -0.350000 -0.400000
v 0.025000 -0.500000 0.600000
v 0.025000 -0.650000 -0.400000
v 0.025000 -0.350000 -0.400000
v -0.025000 -0.650000 0.400000
v -0.025000 -0.350000 0.400000
v 0.025000 -0.650000 0.400000
v 0.025000 -0.350000 0.400000
v -0.025000 -0.340000 -0.035000
v -0.025000 -0.350000 -0.035000
v -0.025000 -0.340000 0.035000
v -0.025000 -0.350000 0.035000
v 0.025000 -0.340000 -0.035000
v 0.025000 -0.350000 -0.035000
v 0.025000 -0.340000 0.035000
v 0.025000 -0.350000 0.035000
v -0.028000 -0.340000 0.035000
v -0.028000 -0.340000 -0.035000
v -0.028000 -0.350000 -0.035000
v -0.028000 -0.350000 0.035000
v 0.028000 -0.350000 0.035000
v 0.028000 -0.340000 0.035000
v 0.028000 -0.340000 -0.035000
v 0.028000 -0.350000 -0.035000
v -0.025000 -0.354000 -0.035000
v -0.025000 -0.354000 0.035000
v 0.025000 -0.354000 0.035000
v 0.025000 -0.354000 -0.035000
v -0.028000 -0.354000 -0.035000
v -0.028000 -0.354000 0.035000
v 0.028000 -0.354000 0.035000
v 0.028000 -0.354000 -0.035000
v 0.000000 0.000000 0.025000
v 0.000000 -0.350000 0.025000
v 0.009567 0.000000 0.023097
v 0.009567 -0.350000 0.023097
v 0.017678 0.000000 0.017678
v 0.017678 -0.350000 0.017678
v 0.023097 0.000000 0.009567
v 0.023097 -0.350000 0.009567
v 0.025000 0.000000 -0.000000
v 0.025000 -0.350000 0.000000
v 0.023097 0.000000 -0.009567
v 0.023097 -0.350000 -0.009567
v 0.017678 0.000000 -0.017678
v 0.017678 -0.350000 -0.017678
v 0.009567 0.000000 -0.023097
v 0.009567 -0.350000 -0.023097
v 0.000000 0.000000 -0.025000
v 0.000000 -0.350000 -0.025000
v -0.009567 0.000000 -0.023097
v -0.009567 -0.350000 -0.023097
v -0.017678 0.000000 -0.017678
v -0.017678 -0.350000 -0.017678
v -0.023097 0.000000 -0.009567
v -0.023097 -0.350000 -0.009567
v -0.025000 0.000000 0.000000
v -0.025000 -0.350000 0.000000
v -0.023097 0.000000 0.009567
v -0.023097 -0.350000 0.009567
v -0.017678 0.000000 0.017678
v -0.017678 -0.350000 0.017678
v -0.009567 0.000000 0.023097
v -0.009567 -0.350000 0.023097
vt 0.764347 0.643112
vt 0.137863 0.408180
vt 0.764347 0.408180
vt 0.544133 0.959453
vt 0.463679 0.981953
vt 0.463679 0.959453
vt 0.255907 0.681170
vt 0.255907 0.916101
vt 0.099286 0.798636
vt 0.124353 0.981953
vt 0.053906 0.959453
vt 0.124353 0.959453
vt 0.883460 0.959453
vt 0.953906 0.981953
vt 0.883460 0.981953
vt 0.544133 0.981953
vt 0.882391 0.916101
vt 0.882391 0.681170
vt 0.920967 0.525646
vt 0.807019 0.131195
vt 0.785423 0.136031
vt 0.785423 0.131195
vt 0.919342 0.054151
vt 0.897747 0.131195
vt 0.897747 0.054151
vt 0.807019 0.054151
vt 0.897747 0.049314
vt 0.898275 0.262131
vt 0.807526 0.207963
vt 0.898275 0.207963
vt 0.807526 0.328868
vt 0.898275 0.295143
vt 0.898275 0.328868
vt 0.898275 0.173268
vt 0.807526 0.145399
vt 0.898275 0.145399
vt 0.807019 0.136031
vt 0.919342 0.049314
vt 0.785423 0.054151
vt 0.807019 0.049314
vt 0.919342 0.131195
vt 0.927789 0.136031
vt 0.919342 0.136031
vt 0.897747 0.136031
vt 0.807526 0.173268
vt 0.898275 0.184925
vt 0.807526 0.184926
vt 0.807526 0.192132
vt 0.898275 0.192132
vt 0.898275 0.276416
vt 0.807526 0.284280
vt 0.807526 0.276417
vt 0.927789 0.054151
vt 0.807526 0.295143
vt 0.898275 0.284280
vt 0.776976 0.131195
vt 0.776976 0.049314
vt 0.785423 0.049314
vt 0.807526 0.262131
vt 0.734907 0.034168
vt 0.233827 0.054886
vt 0.233827 0.034168
vt 0.734907 0.054886
vt 0.233827 0.075603
vt 0.734907 0.075603
vt 0.233827 0.096321
vt 0.734907 0.096321
vt 0.233827 0.117038
vt 0.734907 0.117038
vt 0.233827 0.137756
vt 0.734907 0.137756
vt 0.233827 0.158473
vt 0.734907 0.158473
vt 0.233827 0.179191
vt 0.734907 0.179191
vt 0.233827 0.199908
vt 0.734907 0.199908
vt 0.233827 0.220626
vt 0.734907 0.220626
vt 0.233827 0.241344
vt 0.734907 0.241344
vt 0.233827 0.262061
vt 0.734907 0.262061
vt 0.233827 0.282779
vt 0.734907 0.282779
vt 0.233827 0.303496
vt 0.734907 0.303496
vt 0.233827 0.324214
vt 0.211229 0.210684
vt 0.175136 0.203505
vt 0.200484 0.203505
vt 0.734907 0.324214
vt 0.233827 0.344931
vt 0.734907 0.344931
vt 0.233827 0.365649
vt 0.200484 0.195703
vt 0.211229 0.188523
vt 0.175136 0.195703
vt 0.137863 0.643112
vt 0.053906 0.981953
vt 0.953906 0.959453
vt 0.927789 0.131195
vt 0.927789 0.049314
vt 0.776976 0.136031
vt 0.776976 0.054151
vt 0.218408 0.221428
vt 0.157212 0.221429
vt 0.220929 0.234103
vt 0.154691 0.234103
vt 0.218408 0.246777
vt 0.157212 0.246777
vt 0.211229 0.257521
vt 0.164391 0.257521
vt 0.200484 0.264701
vt 0.187810 0.267222
vt 0.175136 0.264701
vt 0.164391 0.210684
vt 0.187810 0.200984
vt 0.734907 0.365649
vt 0.218408 0.177779
vt 0.220929 0.165105
vt 0.154691 0.165105
vt 0.218408 0.152430
vt 0.157212 0.152430
vt 0.211229 0.141686
vt 0.200484 0.134507
vt 0.164391 0.141686
vt 0.187810 0.131985
vt 0.175136 0.134507
vt 0.157212 0.177779
vt 0.164391 0.188523
vt 0.187810 0.198224
vn -1.0000 0.0000 0.0000
vn 0.0000 0.0000 -1.0000
vn 1.0000 0.0000 0.0000
vn 0.0000 -0.8000 0.6000
vn 0.0000 0.8000 0.6000
vn 0.0000 1.0000 0.0000
vn 0.0000 -1.0000 0.0000
vn 0.0000 0.0000 1.0000
vn 0.1951 0.0000 0.9808
vn 0.5556 0.0000 0.8315
vn 0.8315 0.0000 0.5556
vn 0.9808 0.0000 0.1951
vn 0.9808 -0.0000 -0.1951
vn 0.8315 -0.0000 -0.5556
vn 0.5556 -0.0000 -0.8315
vn 0.1951 -0.0000 -0.9808
vn -0.1951 -0.0000 -0.9808
vn -0.5556 -0.0000 -0.8315
vn -0.8315 -0.0000 -0.5556
vn -0.9808 -0.0000 -0.1951
vn -0.9808 0.0000 0.1951
vn -0.8315 0.0000 0.5556
vn -0.5556 0.0000 0.8315
vn -0.1951 0.0000 0.9808
usemtl ArrowBanner
s 1
f 8/1/1 2/2/1 7/3/1
f 3/4/2 5/5/2 2/6/2
f 9/7/3 10/8/3 4/9/3
f 9/10/4 1/11/4 7/12/4
f 8/13/5 4/14/5 10/15/5
f 3/4/6 10/15/6 6/16/6
f 5/5/7 7/12/7 2/6/7
f 6/17/3 9/7/3 5/18/3
f 1/19/1 8/1/1 7/3/1
f 15/20/2 26/21/2 16/22/2
f 14/23/8 17/24/8 13/25/8
f 11/26/6 19/27/6 13/25/6
f 16/22/2 11/26/2 15/20/2
f 17/24/6 11/26/6 13/25/6
f 14/28/7 16/29/7 18/30/7
f 20/31/1 22/32/1 19/33/1
f 23/34/3 25/35/3 24/36/3
f 17/24/6 25/37/6 15/20/6
f 13/25/8 22/38/8 14/23/8
f 12/39/2 20/40/2 11/26/2
f 18/41/8 33/42/8 23/43/8
f 18/41/8 24/44/8 17/24/8
f 26/45/3 33/46/3 34/47/3
f 30/48/7 33/46/7 29/49/7
f 28/50/7 31/51/7 27/52/7
f 22/38/8 28/53/8 14/23/8
f 21/54/1 32/55/1 22/32/1
f 26/21/2 30/56/2 16/22/2
f 16/29/1 29/49/1 18/30/1
f 12/39/2 31/57/2 21/58/2
f 12/59/3 28/50/3 27/52/3
f 36/60/9 37/61/9 35/62/9
f 38/63/10 39/64/10 37/61/10
f 40/65/11 41/66/11 39/64/11
f 42/67/12 43/68/12 41/66/12
f 44/69/13 45/70/13 43/68/13
f 46/71/14 47/72/14 45/70/14
f 48/73/15 49/74/15 47/72/15
f 50/75/16 51/76/16 49/74/16
f 52/77/17 53/78/17 51/76/17
f 54/79/18 55/80/18 53/78/18
f 56/81/19 57/82/19 55/80/19
f 58/83/20 59/84/20 57/82/20
f 60/85/21 61/86/21 59/84/21
f 62/87/22 63/88/22 61/86/22
f 40/89/7 46/90/7 42/91/7
f 64/92/23 65/93/23 63/88/23
f 66/94/24 35/95/24 65/93/24
f 61/96/6 63/97/6 57/98/6
f 8/1/1 3/99/1 2/2/1
f 3/4/2 6/16/2 5/5/2
f 9/10/4 4/100/4 1/11/4
f 8/13/5 1/101/5 4/14/5
f 3/4/6 8/13/6 10/15/6
f 5/5/7 9/10/7 7/12/7
f 6/17/3 10/8/3 9/7/3
f 15/20/2 25/37/2 26/21/2
f 14/23/8 18/41/8 17/24/8
f 11/26/6 20/40/6 19/27/6
f 16/22/2 12/39/2 11/26/2
f 17/24/6 15/20/6 11/26/6
f 14/28/7 12/59/7 16/29/7
f 20/31/1 21/54/1 22/32/1
f 23/34/3 26/45/3 25/35/3
f 17/24/6 24/44/6 25/37/6
f 13/25/8 19/27/8 22/38/8
f 12/39/2 21/58/2 20/40/2
f 18/41/8 29/102/8 33/42/8
f 18/41/8 23/43/8 24/44/8
f 26/45/3 23/34/3 33/46/3
f 30/48/7 34/47/7 33/46/7
f 28/50/7 32/55/7 31/51/7
f 22/38/8 32/103/8 28/53/8
f 21/54/1 31/51/1 32/55/1
f 26/21/2 34/104/2 30/56/2
f 16/29/1 30/48/1 29/49/1
f 12/39/2 27/105/2 31/57/2
f 12/59/3 14/28/3 28/50/3
f 36/60/9 38/63/9 37/61/9
f 38/63/10 40/65/10 39/64/10
f 40/65/11 42/67/11 41/66/11
f 42/67/12 44/69/12 43/68/12
f 44/69/13 46/71/13 45/70/13
f 46/71/14 48/73/14 47/72/14
f 48/73/15 50/75/15 49/74/15
f 50/75/16 52/77/16 51/76/16
f 52/77/17 54/79/17 53/78/17
f 54/79/18 56/81/18 55/80/18
f 56/81/19 58/83/19 57/82/19
f 58/83/20 60/85/20 59/84/20
f 60/85/21 62/87/21 61/86/21
f 62/87/22 64/92/22 63/88/22
f 40/89/7 38/106/7 50/107/7
f 38/106/7 36/108/7 52/109/7
f 36/108/7 66/110/7 54/111/7
f 66/110/7 64/112/7 56/113/7
f 64/112/7 62/114/7 56/113/7
f 62/114/7 60/115/7 58/116/7
f 56/113/7 62/114/7 58/116/7
f 56/113/7 54/111/7 66/110/7
f 54/111/7 52/109/7 36/108/7
f 52/109/7 50/107/7 38/106/7
f 50/107/7 48/117/7 40/89/7
f 48/117/7 46/90/7 40/89/7
f 46/90/7 44/118/7 42/91/7
f 64/92/23 66/94/23 65/93/23
f 66/94/24 36/119/24 35/95/24
f 65/120/6 35/121/6 51/122/6
f 35/121/6 37/123/6 49/124/6
f 37/123/6 39/125/6 49/124/6
f 39/125/6 41/126/6 47/127/6
f 49/124/6 39/125/6 47/127/6
f 41/126/6 43/128/6 45/129/6
f 45/129/6 47/127/6 41/126/6
f 49/124/6 51/122/6 35/121/6
f 51/122/6 53/130/6 65/120/6
f 53/130/6 55/131/6 65/120/6
f 55/131/6 57/98/6 63/97/6
f 65/120/6 55/131/6 63/97/6
f 57/98/6 59/132/6 61/96/6
